<?xml version="1.0" encoding="UTF-8"?>
<svg version="1.1" xmlns="http://www.w3.org/2000/svg" width="64" height="64">
<path d="M0 0 C0.99837891 -0.03738281 1.99675781 -0.07476563 3.02539062 -0.11328125 C10.42806583 -0.20205417 10.42806583 -0.20205417 14.26171875 2.7109375 C15.6074937 4.57263835 16.91325328 6.46362992 18.1875 8.375 C20.70311644 8.79134767 23.13246436 8.81406637 25.6796875 8.87109375 C29.08723463 9.5557878 30.08291179 10.61296757 32.1875 13.375 C32.58556287 16.14641883 32.74935389 18.51304424 32.71875 21.28125 C32.72449036 22.42382263 32.72449036 22.42382263 32.73034668 23.58947754 C32.73306313 25.19654668 32.72572044 26.80366024 32.70898438 28.41064453 C32.68756786 30.86721587 32.70879178 33.32086311 32.734375 35.77734375 C32.73173167 37.34115227 32.72660658 38.90495898 32.71875 40.46875 C32.72684692 41.20113892 32.73494385 41.93352783 32.74328613 42.68811035 C32.68344962 45.95082543 32.51778156 47.94558856 30.50085449 50.56787109 C27.65798318 52.78864398 26.23179872 52.88089429 22.65625 52.89257812 C21.54830078 52.90518677 20.44035156 52.91779541 19.29882812 52.93078613 C18.10708984 52.92268921 16.91535156 52.91459229 15.6875 52.90625 C13.84575195 52.91199036 13.84575195 52.91199036 11.96679688 52.91784668 C9.37108541 52.92056842 6.77534664 52.91318911 4.1796875 52.89648438 C0.20250401 52.87508075 -3.77287282 52.89627963 -7.75 52.921875 C-10.27083733 52.91923177 -12.79167353 52.91410691 -15.3125 52.90625 C-16.50423828 52.91434692 -17.69597656 52.92244385 -18.92382812 52.93078613 C-20.58575195 52.91187317 -20.58575195 52.91187317 -22.28125 52.89257812 C-23.25513672 52.88939575 -24.22902344 52.88621338 -25.23242188 52.88293457 C-28.57010741 52.22585142 -29.75927497 51.04447488 -31.8125 48.375 C-32.21056287 45.60358117 -32.37435389 43.23695576 -32.34375 40.46875 C-32.3475769 39.70703491 -32.35140381 38.94531982 -32.35534668 38.16052246 C-32.35806313 36.55345332 -32.35072044 34.94633976 -32.33398438 33.33935547 C-32.31256786 30.88278413 -32.33379178 28.42913689 -32.359375 25.97265625 C-32.35673167 24.40884773 -32.35160658 22.84504102 -32.34375 21.28125 C-32.35184692 20.54886108 -32.35994385 19.81647217 -32.36828613 19.06188965 C-32.30458991 15.58871565 -32.06114376 13.70133486 -29.92944336 10.90356445 C-27.36154008 9.04937896 -26.00572322 8.99978906 -22.875 9.0625 C-19.10731999 8.89263073 -19.10731999 8.89263073 -16.12109375 6.80078125 C-14.79699957 4.91311318 -14.79699957 4.91311318 -13.75 2.96875 C-11.21638894 -1.33838879 -4.35703652 0.0611709 0 0 Z M-13.8125 18.375 C-16.95286932 23.84021638 -17.27864871 28.31491867 -15.8125 34.375 C-13.32553497 39.16471043 -10.62444827 41.92363013 -5.8125 44.375 C-0.98693598 45.76268538 2.89499266 45.85955644 7.5 43.75 C11.72682687 41.30465881 14.05736647 38.31237177 16.5 34.125 C17.69111541 29.36053837 17.38397409 24.77718736 15.17578125 20.34375 C11.72999905 15.21312162 8.41214361 12.87733888 2.3125 11.5 C-4.00117442 10.91738221 -9.48484783 13.92713527 -13.8125 18.375 Z M20.1875 16.375 C20.1875 17.695 20.1875 19.015 20.1875 20.375 C21.8375 20.045 23.4875 19.715 25.1875 19.375 C24.8575 18.385 24.5275 17.395 24.1875 16.375 C22.8675 16.375 21.5475 16.375 20.1875 16.375 Z " fill="#09BAB5" transform="translate(31.8125,5.625)"/>
<path d="M0 0 C5.57894737 3.15789474 5.57894737 3.15789474 7 6 C7.5811138 13.08958838 7.5811138 13.08958838 5.125 16.9375 C1.8698054 20.09695358 -0.42413238 20.33421243 -4.9609375 20.29296875 C-8.13134567 19.83745033 -9.8192402 18.24684343 -12 16 C-13.53214888 12.93570224 -13.22938548 10.3834358 -13 7 C-11.73001681 4.14253783 -10.7161997 2.51862737 -8.1875 0.6875 C-5.22019177 -0.24508259 -3.10315844 -0.37237901 0 0 Z " fill="#09BAB5" transform="translate(35,24)"/>
</svg>
